<svg width="82" height="82" viewBox="0 0 82 82" fill="none" xmlns="http://www.w3.org/2000/svg">
<g clip-path="url(#clip0_28_974)">
<rect width="82" height="82" rx="7" fill="#171717"/>
<path d="M-256.421 146.467L-233.131 159.912M-233.131 159.912L-163.951 199.849M-233.131 159.912L-245.95 167.313M-233.131 159.912L-164.02 120.015M-163.951 199.849L-94.772 239.787M-163.951 199.849L-176.771 207.25M-163.951 199.849L-94.8411 159.952M-94.772 239.787L-71.1363 253.431M-94.772 239.787L-107.592 247.187M-94.772 239.787L-25.6618 199.889M-187.31 106.569L-164.02 120.015M-164.02 120.015L-94.8411 159.952M-164.02 120.015L-94.9101 80.1175M-94.8411 159.952L-25.6618 199.889M-94.8411 159.952L-25.7309 120.055M-25.6618 199.889L-2.02611 213.534M-25.6618 199.889L43.4484 159.992M-118.2 66.6721L-94.9101 80.1175M-94.9101 80.1175L-25.7309 120.055M-94.9101 80.1175L-25.8 40.2201M-25.7309 120.055L43.4484 159.992M-25.7309 120.055L43.3793 80.1573M43.4484 159.992L67.0841 173.637M43.4484 159.992L112.559 120.095M-89.3378 4.16024L-25.8 40.2201M-25.8 40.2201L43.3793 80.1573M-25.8 40.2201L43.3102 0.32284M43.3793 80.1573L112.559 120.095M43.3793 80.1573L112.489 40.26M112.559 120.095L136.194 133.739M112.559 120.095L181.669 80.1972M20.0201 -13.1226L43.3102 0.32284M43.3102 0.32284L112.489 40.26M43.3102 0.32284L51.3615 -4.32519M112.489 40.26L181.669 80.1972M112.489 40.26L120.541 35.612M181.669 80.1972L205.304 93.8421M181.669 80.1972L189.72 75.5492" stroke="url(#paint0_linear_28_974)" stroke-opacity="0.1" stroke-width="0.284881"/>
<g filter="url(#filter0_d_28_974)">
<path d="M52.4483 32.431C60.535 37.0995 59.7859 46.9297 51.9268 50.9111C43.8401 55.5795 30.729 55.5795 22.6423 50.9111C14.3851 46.4005 14.0239 37.2053 22.1106 32.5369C30.1973 27.8684 44.3617 27.7626 52.4483 32.431Z" fill="#1864F8"/>
</g>
<circle r="16.8012" transform="matrix(0.866044 -0.499967 0.866044 0.499967 37.2845 40.4824)" fill="#3383FF" stroke="url(#paint1_linear_28_974)" stroke-width="0.211659"/>
<g filter="url(#filter1_d_28_974)">
<path d="M32.76 42.4793C20.071 36.6456 24.3693 28.2934 28.1046 24.8464C31.785 25.1348 41.0327 25.8105 48.5802 26.206C58.0146 26.7004 58.4266 41.573 54.142 43.2621C49.8574 44.9512 50.5577 45.4456 32.76 42.4793Z" fill="#337EFF"/>
</g>
<g filter="url(#filter2_b_28_974)">
<path d="M59.3202 42.2612L59.3202 42.2611L59.3163 42.2633C55.2884 44.5886 50.004 45.7536 44.7152 45.7536C39.4264 45.7536 34.142 44.5886 30.1142 42.2633L30.1125 42.2624C26.0041 40.0182 23.871 36.6155 23.7605 33.2041C23.6501 29.7936 25.5606 26.3537 29.5825 24.0318C33.6099 21.7068 39.1573 20.515 44.7105 20.4886C50.2638 20.4622 55.8109 21.6012 59.8378 23.926C63.8569 26.2462 65.6729 29.8432 65.5156 33.3486C65.3582 36.8551 63.2256 40.2827 59.3202 42.2612Z" fill="white" fill-opacity="0.5" stroke="url(#paint2_linear_28_974)" stroke-width="0.164793"/>
</g>
<g filter="url(#filter3_b_28_974)">
<circle r="16.8012" transform="matrix(0.866044 -0.499967 0.866044 0.499967 44.7154 31.906)" fill="white" fill-opacity="0.5" stroke="url(#paint3_linear_28_974)" stroke-width="0.211659"/>
</g>
<g filter="url(#filter4_i_28_974)">
<path d="M43.8814 35.1579C45.2785 35.9644 47.4821 35.9894 48.8072 35.2244L51.5148 33.6613C52.667 32.9961 52.6239 31.8903 51.3996 31.1835C50.089 30.4269 49.0376 30.4851 47.8854 30.801L42.0379 32.4307C40.8857 32.7467 39.8487 32.8132 38.5237 32.0482C37.3139 31.3498 37.2562 30.2357 38.4084 29.5705L41.1161 28.0073C42.4412 27.2424 44.6448 27.2673 46.0419 28.0738" stroke="#337EFF" stroke-width="2.04747" stroke-linecap="round" stroke-linejoin="round"/>
<path d="M38.4805 27.8828L51.4429 35.366" stroke="#337EFF" stroke-width="2.04747" stroke-linecap="round" stroke-linejoin="round"/>
</g>
</g>
<rect x="0.3" y="0.3" width="81.4" height="81.4" rx="6.7" stroke="url(#paint4_linear_28_974)" stroke-opacity="0.3" stroke-width="0.6"/>
<defs>
<filter id="filter0_d_28_974" x="10.5987" y="28.9822" width="53.2223" height="38.1297" filterUnits="userSpaceOnUse" color-interpolation-filters="sRGB">
<feFlood flood-opacity="0" result="BackgroundImageFix"/>
<feColorMatrix in="SourceAlpha" type="matrix" values="0 0 0 0 0 0 0 0 0 0 0 0 0 0 0 0 0 0 127 0" result="hardAlpha"/>
<feOffset dy="7.05529"/>
<feGaussianBlur stdDeviation="2.82212"/>
<feComposite in2="hardAlpha" operator="out"/>
<feColorMatrix type="matrix" values="0 0 0 0 0.343982 0 0 0 0 0.567028 0 0 0 0 1 0 0 0 0.5 0"/>
<feBlend mode="normal" in2="BackgroundImageFix" result="effect1_dropShadow_28_974"/>
<feBlend mode="normal" in="SourceGraphic" in2="effect1_dropShadow_28_974" result="shape"/>
</filter>
<filter id="filter1_d_28_974" x="17.3511" y="22.3745" width="46.3256" height="33.6144" filterUnits="userSpaceOnUse" color-interpolation-filters="sRGB">
<feFlood flood-opacity="0" result="BackgroundImageFix"/>
<feColorMatrix in="SourceAlpha" type="matrix" values="0 0 0 0 0 0 0 0 0 0 0 0 0 0 0 0 0 0 127 0" result="hardAlpha"/>
<feOffset dy="4.44942"/>
<feGaussianBlur stdDeviation="3.46066"/>
<feComposite in2="hardAlpha" operator="out"/>
<feColorMatrix type="matrix" values="0 0 0 0 0.188235 0 0 0 0 0.220706 0 0 0 0 1 0 0 0 0.7 0"/>
<feBlend mode="normal" in2="BackgroundImageFix" result="effect1_dropShadow_28_974"/>
<feBlend mode="normal" in="SourceGraphic" in2="effect1_dropShadow_28_974" result="shape"/>
</filter>
<filter id="filter2_b_28_974" x="18.0294" y="14.7615" width="53.2223" height="36.7186" filterUnits="userSpaceOnUse" color-interpolation-filters="sRGB">
<feFlood flood-opacity="0" result="BackgroundImageFix"/>
<feGaussianBlur in="BackgroundImage" stdDeviation="2.82212"/>
<feComposite in2="SourceAlpha" operator="in" result="effect1_backgroundBlur_28_974"/>
<feBlend mode="normal" in="SourceGraphic" in2="effect1_backgroundBlur_28_974" result="shape"/>
</filter>
<filter id="filter3_b_28_974" x="18.3638" y="14.3074" width="52.703" height="35.1972" filterUnits="userSpaceOnUse" color-interpolation-filters="sRGB">
<feFlood flood-opacity="0" result="BackgroundImageFix"/>
<feGaussianBlur in="BackgroundImage" stdDeviation="2.82212"/>
<feComposite in2="SourceAlpha" operator="in" result="effect1_backgroundBlur_28_974"/>
<feBlend mode="normal" in="SourceGraphic" in2="effect1_backgroundBlur_28_974" result="shape"/>
</filter>
<filter id="filter4_i_28_974" x="36.325" y="26.7268" width="17.2786" height="9.94287" filterUnits="userSpaceOnUse" color-interpolation-filters="sRGB">
<feFlood flood-opacity="0" result="BackgroundImageFix"/>
<feBlend mode="normal" in="SourceGraphic" in2="BackgroundImageFix" result="shape"/>
<feColorMatrix in="SourceAlpha" type="matrix" values="0 0 0 0 0 0 0 0 0 0 0 0 0 0 0 0 0 0 127 0" result="hardAlpha"/>
<feOffset dy="0.383098"/>
<feGaussianBlur stdDeviation="0.0823967"/>
<feComposite in2="hardAlpha" operator="arithmetic" k2="-1" k3="1"/>
<feColorMatrix type="matrix" values="0 0 0 0 1 0 0 0 0 1 0 0 0 0 1 0 0 0 1 0"/>
<feBlend mode="normal" in2="shape" result="effect1_innerShadow_28_974"/>
</filter>
<linearGradient id="paint0_linear_28_974" x1="-232.341" y1="154.535" x2="-102.356" y2="-70.6262" gradientUnits="userSpaceOnUse">
<stop offset="0.159083" stop-color="white"/>
<stop offset="0.804928" stop-color="white"/>
</linearGradient>
<linearGradient id="paint1_linear_28_974" x1="2.92988" y1="13.7541" x2="17.775" y2="27.6772" gradientUnits="userSpaceOnUse">
<stop stop-color="white" stop-opacity="0.43"/>
<stop offset="0.846595" stop-color="white" stop-opacity="0.44"/>
<stop offset="1" stop-color="white" stop-opacity="0"/>
</linearGradient>
<linearGradient id="paint2_linear_28_974" x1="27.307" y1="30.7497" x2="37.5091" y2="46.5278" gradientUnits="userSpaceOnUse">
<stop stop-color="white" stop-opacity="0"/>
<stop offset="0.846595" stop-color="white" stop-opacity="0.06"/>
<stop offset="1" stop-color="white" stop-opacity="0.23"/>
</linearGradient>
<linearGradient id="paint3_linear_28_974" x1="2.92988" y1="13.7541" x2="17.775" y2="27.6772" gradientUnits="userSpaceOnUse">
<stop stop-color="white" stop-opacity="0.43"/>
<stop offset="0.846595" stop-color="white" stop-opacity="0.44"/>
<stop offset="1" stop-color="white" stop-opacity="0"/>
</linearGradient>
<linearGradient id="paint4_linear_28_974" x1="-11.5" y1="-12" x2="91.5" y2="83.5" gradientUnits="userSpaceOnUse">
<stop stop-color="white" stop-opacity="0"/>
<stop offset="0.406121" stop-color="white"/>
<stop offset="1" stop-color="white" stop-opacity="0"/>
</linearGradient>
<clipPath id="clip0_28_974">
<rect width="82" height="82" rx="7" fill="white"/>
</clipPath>
</defs>
</svg>
