<svg width="82" height="82" viewBox="0 0 82 82" fill="none" xmlns="http://www.w3.org/2000/svg">
<g clip-path="url(#clip0_28_791)">
<rect width="82" height="82" rx="7" fill="#171717"/>
<path d="M-256.421 146.467L-233.131 159.912M-233.131 159.912L-163.951 199.849M-233.131 159.912L-245.95 167.313M-233.131 159.912L-164.02 120.015M-163.951 199.849L-94.772 239.787M-163.951 199.849L-176.771 207.25M-163.951 199.849L-94.8411 159.952M-94.772 239.787L-71.1363 253.431M-94.772 239.787L-107.592 247.187M-94.772 239.787L-25.6618 199.889M-187.31 106.569L-164.02 120.015M-164.02 120.015L-94.8411 159.952M-164.02 120.015L-94.9101 80.1175M-94.8411 159.952L-25.6618 199.889M-94.8411 159.952L-25.7309 120.055M-25.6618 199.889L-2.02611 213.534M-25.6618 199.889L43.4484 159.992M-118.2 66.6721L-94.9101 80.1175M-94.9101 80.1175L-25.7309 120.055M-94.9101 80.1175L-25.8 40.2201M-25.7309 120.055L43.4484 159.992M-25.7309 120.055L43.3793 80.1573M43.4484 159.992L67.0841 173.637M43.4484 159.992L112.559 120.095M-89.3378 4.16024L-25.8 40.2201M-25.8 40.2201L43.3793 80.1573M-25.8 40.2201L43.3102 0.32284M43.3793 80.1573L112.559 120.095M43.3793 80.1573L112.489 40.26M112.559 120.095L136.194 133.739M112.559 120.095L181.669 80.1972M20.0201 -13.1226L43.3102 0.32284M43.3102 0.32284L112.489 40.26M43.3102 0.32284L51.3615 -4.32519M112.489 40.26L181.669 80.1972M112.489 40.26L120.541 35.612M181.669 80.1972L205.304 93.8421M181.669 80.1972L189.72 75.5492" stroke="url(#paint0_linear_28_791)" stroke-opacity="0.1" stroke-width="0.284881"/>
<g filter="url(#filter0_d_28_791)">
<path d="M57.8705 31.8185C66.5966 36.856 65.7882 47.4634 57.3077 51.7597C48.5817 56.7972 34.4339 56.7972 25.7078 51.7597C16.7978 46.8925 16.408 36.9703 25.1341 31.9327C33.8602 26.8951 49.1445 26.7809 57.8705 31.8185Z" fill="#DB3018"/>
</g>
<circle r="18.0976" transform="matrix(0.866044 -0.499967 0.866044 0.499967 41.5079 40.5068)" fill="#FE7040" stroke="url(#paint1_linear_28_791)" stroke-width="0.292516"/>
<g filter="url(#filter1_d_28_791)">
<path d="M43.1608 46.1736C33.8428 40.8389 44.5833 33.4 51.1183 30.3473C55.6706 29.3515 59.9798 34.052 61.5654 36.5267C58.5573 37.3121 50.6649 40.341 43.1608 46.1736Z" fill="#F13E02"/>
</g>
<g filter="url(#filter2_d_28_791)">
<path d="M40.8046 22.7451C47.344 31.2609 40.6762 32.5892 33.4694 32.8852C28.8853 32.0482 26.7224 26.0493 26.214 23.1546C29.2923 23.5902 31.6315 25.2321 40.8046 22.7451Z" fill="#F13E02"/>
</g>
<g filter="url(#filter3_b_28_791)">
<path d="M41.5695 31.7982C44.6277 30.0328 46.0214 24.3064 42.316 22.1673C38.6106 20.0282 31.4399 19.7614 27.7345 21.9005C24.0291 24.0396 24.4458 29.6591 28.1512 31.7982C31.8565 33.9374 37.8641 33.9374 41.5695 31.7982Z" fill="white" fill-opacity="0.5"/>
<path d="M44.924 33.7349C38.2014 37.6159 37.2353 43.3792 42.7905 46.5862C43.1662 46.8031 43.7566 46.8031 44.1323 46.5862L67.1851 33.2779C67.5608 33.061 67.4779 32.6588 67.4779 32.1698C67.4335 30.1248 67.5669 30.1248 67.1851 30.2137C66.326 29.8854 63.56 31.0455 62.5878 30.8508C60.4656 30.426 58.1185 30.317 55.7416 30.5129C51.9473 30.8255 48.077 31.9147 44.924 33.7349Z" fill="white" fill-opacity="0.5"/>
</g>
<g filter="url(#filter4_b_28_791)">
<path d="M41.4215 21.648C45.0452 23.7399 45.0452 27.1317 41.4215 29.2236C37.7978 31.3156 31.9227 31.3156 28.299 29.2236C24.6753 27.1317 24.6753 23.7399 28.299 21.648C31.9227 19.556 37.7978 19.556 41.4215 21.648Z" fill="white" fill-opacity="0.5" stroke="url(#paint2_linear_28_791)" stroke-width="0.341621"/>
<path d="M42.9383 44.0118C37.4902 40.8666 38.4029 35.1812 45.0718 31.3313C51.7407 27.4813 61.5889 26.9544 67.037 30.0996C67.331 30.2693 67.331 30.5337 67.037 30.7034L43.9842 44.0118C43.6902 44.1815 43.2323 44.1815 42.9383 44.0118Z" fill="white" fill-opacity="0.5" stroke="url(#paint3_linear_28_791)" stroke-width="0.341621"/>
</g>
<g filter="url(#filter5_i_28_791)">
<path d="M47.9709 35.736L47.9709 35.7359C47.974 35.4532 48.3745 35.219 48.8646 35.2134L51.348 35.185L51.4281 35.1841L51.4286 35.1379L51.472 31.5933C51.476 31.3098 51.8766 31.0758 52.3656 31.0707C52.8551 31.0655 53.2472 31.2893 53.2425 31.5699L53.2425 31.57L53.1927 35.6744L53.1927 35.6744C53.1912 35.8161 53.0906 35.9448 52.9284 36.0395C52.7659 36.1342 52.5445 36.1941 52.2991 36.197C52.2991 36.197 52.2991 36.197 52.2991 36.197L48.847 36.2358C48.847 36.2358 48.847 36.2358 48.8469 36.2358C48.3583 36.2405 47.967 36.0172 47.9709 35.736Z" fill="#FE7040" stroke="url(#paint4_linear_28_791)" stroke-width="0.134411"/>
</g>
</g>
<rect x="0.3" y="0.3" width="81.4" height="81.4" rx="6.7" stroke="url(#paint5_linear_28_791)" stroke-opacity="0.3" stroke-width="0.6"/>
<defs>
<filter id="filter0_d_28_791" x="11.0021" y="28.0969" width="60.8501" height="44.9919" filterUnits="userSpaceOnUse" color-interpolation-filters="sRGB">
<feFlood flood-opacity="0" result="BackgroundImageFix"/>
<feColorMatrix in="SourceAlpha" type="matrix" values="0 0 0 0 0 0 0 0 0 0 0 0 0 0 0 0 0 0 127 0" result="hardAlpha"/>
<feOffset dy="9.75052"/>
<feGaussianBlur stdDeviation="3.90021"/>
<feComposite in2="hardAlpha" operator="out"/>
<feColorMatrix type="matrix" values="0 0 0 0 1 0 0 0 0 0.462065 0 0 0 0 0.343982 0 0 0 0.5 0"/>
<feBlend mode="normal" in2="BackgroundImageFix" result="effect1_dropShadow_28_791"/>
<feBlend mode="normal" in="SourceGraphic" in2="effect1_dropShadow_28_791" result="shape"/>
</filter>
<filter id="filter1_d_28_791" x="34.5084" y="30.2109" width="32.0675" height="27.1223" filterUnits="userSpaceOnUse" color-interpolation-filters="sRGB">
<feFlood flood-opacity="0" result="BackgroundImageFix"/>
<feColorMatrix in="SourceAlpha" type="matrix" values="0 0 0 0 0 0 0 0 0 0 0 0 0 0 0 0 0 0 127 0" result="hardAlpha"/>
<feOffset dy="6.14917"/>
<feGaussianBlur stdDeviation="2.50522"/>
<feComposite in2="hardAlpha" operator="out"/>
<feColorMatrix type="matrix" values="0 0 0 0 0.902202 0 0 0 0 0.237154 0 0 0 0 0.0142334 0 0 0 1 0"/>
<feBlend mode="normal" in2="BackgroundImageFix" result="effect1_dropShadow_28_791"/>
<feBlend mode="normal" in="SourceGraphic" in2="effect1_dropShadow_28_791" result="shape"/>
</filter>
<filter id="filter2_d_28_791" x="21.2037" y="22.7451" width="27.2777" height="21.2997" filterUnits="userSpaceOnUse" color-interpolation-filters="sRGB">
<feFlood flood-opacity="0" result="BackgroundImageFix"/>
<feColorMatrix in="SourceAlpha" type="matrix" values="0 0 0 0 0 0 0 0 0 0 0 0 0 0 0 0 0 0 127 0" result="hardAlpha"/>
<feOffset dy="6.14917"/>
<feGaussianBlur stdDeviation="2.50522"/>
<feComposite in2="hardAlpha" operator="out"/>
<feColorMatrix type="matrix" values="0 0 0 0 0.902202 0 0 0 0 0.237154 0 0 0 0 0.0142334 0 0 0 1 0"/>
<feBlend mode="normal" in2="BackgroundImageFix" result="effect1_dropShadow_28_791"/>
<feBlend mode="normal" in="SourceGraphic" in2="effect1_dropShadow_28_791" result="shape"/>
</filter>
<filter id="filter3_b_28_791" x="17.3546" y="12.6229" width="57.9314" height="41.9265" filterUnits="userSpaceOnUse" color-interpolation-filters="sRGB">
<feFlood flood-opacity="0" result="BackgroundImageFix"/>
<feGaussianBlur in="BackgroundImage" stdDeviation="3.90021"/>
<feComposite in2="SourceAlpha" operator="in" result="effect1_backgroundBlur_28_791"/>
<feBlend mode="normal" in="SourceGraphic" in2="effect1_backgroundBlur_28_791" result="shape"/>
</filter>
<filter id="filter4_b_28_791" x="17.5717" y="12.1578" width="57.6956" height="39.9023" filterUnits="userSpaceOnUse" color-interpolation-filters="sRGB">
<feFlood flood-opacity="0" result="BackgroundImageFix"/>
<feGaussianBlur in="BackgroundImage" stdDeviation="3.90021"/>
<feComposite in2="SourceAlpha" operator="in" result="effect1_backgroundBlur_28_791"/>
<feBlend mode="normal" in="SourceGraphic" in2="effect1_backgroundBlur_28_791" result="shape"/>
</filter>
<filter id="filter5_i_28_791" x="47.8884" y="31.0232" width="5.43652" height="5.488" filterUnits="userSpaceOnUse" color-interpolation-filters="sRGB">
<feFlood flood-opacity="0" result="BackgroundImageFix"/>
<feBlend mode="normal" in="SourceGraphic" in2="BackgroundImageFix" result="shape"/>
<feColorMatrix in="SourceAlpha" type="matrix" values="0 0 0 0 0 0 0 0 0 0 0 0 0 0 0 0 0 0 127 0" result="hardAlpha"/>
<feOffset dy="0.227747"/>
<feGaussianBlur stdDeviation="0.113874"/>
<feComposite in2="hardAlpha" operator="arithmetic" k2="-1" k3="1"/>
<feColorMatrix type="matrix" values="0 0 0 0 0 0 0 0 0 0 0 0 0 0 0 0 0 0 0.1 0"/>
<feBlend mode="normal" in2="shape" result="effect1_innerShadow_28_791"/>
</filter>
<linearGradient id="paint0_linear_28_791" x1="-232.341" y1="154.535" x2="-102.356" y2="-70.6262" gradientUnits="userSpaceOnUse">
<stop offset="0.159083" stop-color="white"/>
<stop offset="0.804928" stop-color="white"/>
</linearGradient>
<linearGradient id="paint1_linear_28_791" x1="3.16154" y1="14.8416" x2="19.1803" y2="29.8655" gradientUnits="userSpaceOnUse">
<stop stop-color="white" stop-opacity="0.43"/>
<stop offset="0.846595" stop-color="white" stop-opacity="0.44"/>
<stop offset="1" stop-color="white" stop-opacity="0"/>
</linearGradient>
<linearGradient id="paint2_linear_28_791" x1="28.0626" y1="27.9155" x2="39.4552" y2="27.283" gradientUnits="userSpaceOnUse">
<stop stop-color="white" stop-opacity="0.43"/>
<stop offset="0.846595" stop-color="white" stop-opacity="0.44"/>
<stop offset="1" stop-color="white" stop-opacity="0"/>
</linearGradient>
<linearGradient id="paint3_linear_28_791" x1="39.2067" y1="39.5878" x2="48.4454" y2="45.3698" gradientUnits="userSpaceOnUse">
<stop stop-color="white" stop-opacity="0.43"/>
<stop offset="0.846595" stop-color="white" stop-opacity="0.44"/>
<stop offset="1" stop-color="white" stop-opacity="0"/>
</linearGradient>
<linearGradient id="paint4_linear_28_791" x1="47.2892" y1="34.3844" x2="53.9563" y2="37.4008" gradientUnits="userSpaceOnUse">
<stop stop-color="white" stop-opacity="0.25"/>
<stop offset="1" stop-color="white" stop-opacity="0"/>
</linearGradient>
<linearGradient id="paint5_linear_28_791" x1="-11.5" y1="-12" x2="91.5" y2="83.5" gradientUnits="userSpaceOnUse">
<stop stop-color="white" stop-opacity="0"/>
<stop offset="0.406121" stop-color="white"/>
<stop offset="1" stop-color="white" stop-opacity="0"/>
</linearGradient>
<clipPath id="clip0_28_791">
<rect width="82" height="82" rx="7" fill="white"/>
</clipPath>
</defs>
</svg>
