<svg width="82" height="82" viewBox="0 0 82 82" fill="none" xmlns="http://www.w3.org/2000/svg">
<g clip-path="url(#clip0_28_1157)">
<rect width="82" height="82" rx="7" fill="#171717"/>
<path d="M-256.421 146.467L-233.131 159.912M-233.131 159.912L-163.951 199.849M-233.131 159.912L-245.951 167.313M-233.131 159.912L-164.021 120.015M-163.951 199.849L-94.7722 239.787M-163.951 199.849L-176.771 207.25M-163.951 199.849L-94.8413 159.952M-94.7722 239.787L-71.1365 253.431M-94.7722 239.787L-107.592 247.187M-94.7722 239.787L-25.662 199.889M-187.311 106.569L-164.021 120.015M-164.021 120.015L-94.8413 159.952M-164.021 120.015L-94.9104 80.1175M-94.8413 159.952L-25.662 199.889M-94.8413 159.952L-25.7311 120.055M-25.662 199.889L-2.02636 213.534M-25.662 199.889L43.4481 159.992M-118.201 66.6721L-94.9104 80.1175M-94.9104 80.1175L-25.7311 120.055M-94.9104 80.1175L-25.8002 40.2201M-25.7311 120.055L43.4481 159.992M-25.7311 120.055L43.3791 80.1573M43.4481 159.992L67.0838 173.637M43.4481 159.992L112.558 120.095M-89.338 4.16024L-25.8002 40.2201M-25.8002 40.2201L43.3791 80.1573M-25.8002 40.2201L43.3099 0.32284M43.3791 80.1573L112.558 120.095M43.3791 80.1573L112.489 40.26M112.558 120.095L136.194 133.739M112.558 120.095L181.669 80.1972M20.0198 -13.1226L43.3099 0.32284M43.3099 0.32284L112.489 40.26M43.3099 0.32284L51.3613 -4.32519M112.489 40.26L181.669 80.1972M112.489 40.26L120.541 35.612M181.669 80.1972L205.304 93.8421M181.669 80.1972L189.72 75.5492" stroke="url(#paint0_linear_28_1157)" stroke-opacity="0.1" stroke-width="0.284881"/>
<g filter="url(#filter0_d_28_1157)">
<path d="M24.3913 30.4687C17.3697 34.5222 17.6147 43.4949 24.5612 47.5051C28.0617 49.5259 32.583 50.668 37.4343 51.0476C42.7645 51.4786 48.2609 51.362 53.5641 50.6996C54.8861 50.5327 55.5122 50.1294 55.766 49.4284C56.8951 46.3775 57.1755 40.6395 56.4487 37.551C55.7896 34.7512 53.8129 32.1402 50.3124 30.1194C43.3659 26.1091 31.4327 26.4037 24.3913 30.4687Z" fill="#5218F8"/>
</g>
<path d="M53.5993 48.1334L53.5997 48.1334L55.7659 46.7679L55.9294 46.7881C55.9295 46.788 55.9295 46.788 55.9295 46.7879C57.0626 43.726 57.2652 40.5418 56.5358 37.4423L56.3702 37.4553L56.5358 37.4423C55.8726 34.625 53.8823 31.9934 50.3521 29.9555C43.3374 25.9059 31.812 26.019 24.7083 30.12C17.6241 34.2097 17.4284 40.8633 24.4429 44.9128C27.973 46.9507 32.5297 48.1006 37.4115 48.4827C42.761 48.9152 48.2771 48.7982 53.5993 48.1334Z" fill="url(#paint1_linear_28_1157)" stroke="url(#paint2_linear_28_1157)" stroke-width="0.27301" stroke-linecap="round" stroke-linejoin="round"/>
<g filter="url(#filter1_d_28_1157)">
<path d="M36.1743 42.0741C24.8872 36.885 28.7107 29.4555 32.0333 26.3894C35.307 26.6459 43.533 27.2469 50.2466 27.5987C58.6387 28.0385 59.0051 41.2679 55.1939 42.7704C51.3827 44.2729 52.0057 44.7127 36.1743 42.0741Z" fill="#5C34FF"/>
</g>
<g filter="url(#filter2_b_28_1157)">
<path d="M32.7844 24.3901C26.2677 28.1522 26.6777 36.8038 33.1248 40.5257C36.3735 42.4012 40.5697 43.4611 45.0722 43.8134C50.0191 44.2134 55.1202 44.1053 60.0421 43.4905C61.2691 43.3356 61.8502 42.9613 62.0857 42.3107C63.1336 39.4791 63.3938 34.1538 62.7193 31.2873C62.1076 28.6889 60.273 26.2656 57.0243 24.3901C50.5773 20.6682 39.3195 20.6174 32.7844 24.3901Z" fill="white" fill-opacity="0.5"/>
</g>
<g filter="url(#filter3_b_28_1157)">
<path d="M33.3707 23.8828C26.854 27.6449 26.6774 33.7634 33.1245 37.4853C36.3732 39.3608 40.5694 40.4207 45.0719 40.773C50.0188 41.173 55.12 41.0648 60.0418 40.4501C61.2688 40.2952 61.8499 39.9208 62.0855 39.2703C63.1334 36.4387 63.3207 33.4938 62.6462 30.6273C62.0345 28.0289 60.2 25.6056 56.9512 23.7301C50.5042 20.0082 39.9058 20.1102 33.3707 23.8828Z" fill="white" fill-opacity="0.5"/>
<path d="M60.075 40.5376L60.0747 40.5376C55.1351 41.1546 50.0157 41.2632 45.0508 40.8617C40.5201 40.5072 36.291 39.4399 33.0148 37.5486C26.5046 33.7903 26.6863 27.6151 33.261 23.8195C39.854 20.0134 50.5506 19.9084 57.0609 23.6667C60.3372 25.5582 62.1844 28.0005 62.8 30.6153L62.6462 30.6273L62.8 30.6153C63.4769 33.4918 63.2889 36.447 62.2374 39.2886L60.075 40.5376ZM60.075 40.5376C60.709 40.4575 61.1916 40.3188 61.5465 40.1086M60.075 40.5376L61.5465 40.1086M61.5465 40.1086C61.9012 39.8986 62.1155 39.6251 62.2372 39.289L61.5465 40.1086Z" stroke="url(#paint3_linear_28_1157)" stroke-width="0.253379" stroke-linecap="round" stroke-linejoin="round"/>
</g>
<g filter="url(#filter4_i_28_1157)">
<circle r="5.82198" transform="matrix(0.866044 -0.499967 0.866044 0.499967 43.933 30.1343)" stroke="#5C33FF" stroke-width="1.61921"/>
</g>
</g>
<rect x="0.3" y="0.3" width="81.4" height="81.4" rx="6.7" stroke="url(#paint4_linear_28_1157)" stroke-opacity="0.3" stroke-width="0.6"/>
<defs>
<filter id="filter0_d_28_1157" x="12.8176" y="27.261" width="50.4517" height="38.4848" filterUnits="userSpaceOnUse" color-interpolation-filters="sRGB">
<feFlood flood-opacity="0" result="BackgroundImageFix"/>
<feColorMatrix in="SourceAlpha" type="matrix" values="0 0 0 0 0 0 0 0 0 0 0 0 0 0 0 0 0 0 127 0" result="hardAlpha"/>
<feOffset dy="8.0243"/>
<feGaussianBlur stdDeviation="3.20972"/>
<feComposite in2="hardAlpha" operator="out"/>
<feColorMatrix type="matrix" values="0 0 0 0 0.475185 0 0 0 0 0.343982 0 0 0 0 1 0 0 0 0.5 0"/>
<feBlend mode="normal" in2="BackgroundImageFix" result="effect1_dropShadow_28_1157"/>
<feBlend mode="normal" in="SourceGraphic" in2="effect1_dropShadow_28_1157" result="shape"/>
</filter>
<filter id="filter1_d_28_1157" x="22.4679" y="24.1906" width="41.2073" height="29.9004" filterUnits="userSpaceOnUse" color-interpolation-filters="sRGB">
<feFlood flood-opacity="0" result="BackgroundImageFix"/>
<feColorMatrix in="SourceAlpha" type="matrix" values="0 0 0 0 0 0 0 0 0 0 0 0 0 0 0 0 0 0 127 0" result="hardAlpha"/>
<feOffset dy="3.95783"/>
<feGaussianBlur stdDeviation="3.07831"/>
<feComposite in2="hardAlpha" operator="out"/>
<feColorMatrix type="matrix" values="0 0 0 0 0.130634 0 0 0 0 0 0 0 0 0 0.933102 0 0 0 0.4 0"/>
<feBlend mode="normal" in2="BackgroundImageFix" result="effect1_dropShadow_28_1157"/>
<feBlend mode="normal" in="SourceGraphic" in2="effect1_dropShadow_28_1157" result="shape"/>
</filter>
<filter id="filter2_b_28_1157" x="19.7021" y="13.1926" width="51.7765" height="39.244" filterUnits="userSpaceOnUse" color-interpolation-filters="sRGB">
<feFlood flood-opacity="0" result="BackgroundImageFix"/>
<feGaussianBlur in="BackgroundImage" stdDeviation="4.1935"/>
<feComposite in2="SourceAlpha" operator="in" result="effect1_backgroundBlur_28_1157"/>
<feBlend mode="normal" in="SourceGraphic" in2="effect1_backgroundBlur_28_1157" result="shape"/>
</filter>
<filter id="filter3_b_28_1157" x="19.6875" y="12.4289" width="52.0521" height="37.1466" filterUnits="userSpaceOnUse" color-interpolation-filters="sRGB">
<feFlood flood-opacity="0" result="BackgroundImageFix"/>
<feGaussianBlur in="BackgroundImage" stdDeviation="4.1935"/>
<feComposite in2="SourceAlpha" operator="in" result="effect1_backgroundBlur_28_1157"/>
<feBlend mode="normal" in="SourceGraphic" in2="effect1_backgroundBlur_28_1157" result="shape"/>
</filter>
<filter id="filter4_i_28_1157" x="35.8108" y="25.4453" width="16.2444" height="9.52891" filterUnits="userSpaceOnUse" color-interpolation-filters="sRGB">
<feFlood flood-opacity="0" result="BackgroundImageFix"/>
<feBlend mode="normal" in="SourceGraphic" in2="BackgroundImageFix" result="shape"/>
<feColorMatrix in="SourceAlpha" type="matrix" values="0 0 0 0 0 0 0 0 0 0 0 0 0 0 0 0 0 0 127 0" result="hardAlpha"/>
<feOffset dy="0.350988"/>
<feGaussianBlur stdDeviation="0.0754904"/>
<feComposite in2="hardAlpha" operator="arithmetic" k2="-1" k3="1"/>
<feColorMatrix type="matrix" values="0 0 0 0 1 0 0 0 0 1 0 0 0 0 1 0 0 0 1 0"/>
<feBlend mode="normal" in2="shape" result="effect1_innerShadow_28_1157"/>
</filter>
<linearGradient id="paint0_linear_28_1157" x1="-232.341" y1="154.535" x2="-102.356" y2="-70.6262" gradientUnits="userSpaceOnUse">
<stop offset="0.159083" stop-color="white"/>
<stop offset="0.804928" stop-color="white"/>
</linearGradient>
<linearGradient id="paint1_linear_28_1157" x1="37.6675" y1="31.9309" x2="34.0315" y2="46.2246" gradientUnits="userSpaceOnUse">
<stop stop-color="#5C33FF"/>
<stop offset="1" stop-color="#7759EF"/>
</linearGradient>
<linearGradient id="paint2_linear_28_1157" x1="26.5098" y1="43.4012" x2="49.218" y2="38.9627" gradientUnits="userSpaceOnUse">
<stop stop-color="white" stop-opacity="0.43"/>
<stop offset="0.846595" stop-color="white" stop-opacity="0.44"/>
<stop offset="1" stop-color="white" stop-opacity="0"/>
</linearGradient>
<linearGradient id="paint3_linear_28_1157" x1="34.933" y1="36.1456" x2="56.0083" y2="32.0264" gradientUnits="userSpaceOnUse">
<stop stop-color="white" stop-opacity="0.43"/>
<stop offset="0.846595" stop-color="white" stop-opacity="0.44"/>
<stop offset="1" stop-color="white" stop-opacity="0"/>
</linearGradient>
<linearGradient id="paint4_linear_28_1157" x1="-11.5" y1="-12" x2="91.5" y2="83.5" gradientUnits="userSpaceOnUse">
<stop stop-color="white" stop-opacity="0"/>
<stop offset="0.406121" stop-color="white"/>
<stop offset="1" stop-color="white" stop-opacity="0"/>
</linearGradient>
<clipPath id="clip0_28_1157">
<rect width="82" height="82" rx="7" fill="white"/>
</clipPath>
</defs>
</svg>
